<svg id="Layer_1" viewBox="0 0 64 64" xmlns="http://www.w3.org/2000/svg" data-name="Layer 1"><g fill="#fff"><path d="m31.6 42.01c-.752 0-.8-.023-.972-.1-10.5-4.758-21.108-.048-21.214 0a1 1 0 0 1 -1.414-.91v-28a1 1 0 0 1 1-1h4a1 1 0 0 1 0 2h-3v25.536c3.373-1.189 12.227-3.54 21.274.472.354 0 1.133 0 1.507-.006 9.011-4.002 17.849-1.655 21.219-.466v-25.536h-3a1 1 0 0 1 0-2h4a1 1 0 0 1 1 1v28a1 1 0 0 1 -1.413.911c-.106-.048-10.734-4.744-21.173 0a.992.992 0 0 1 -.405.09c-.64.005-1.089.009-1.409.009z"/><path d="m31.889 38.007a1.011 1.011 0 0 1 -.384-.076 30.611 30.611 0 0 0 -18.292-1.359 1 1 0 0 1 -1.213-.972v-25.6a1 1 0 0 1 .553-.895c7.573-3.787 17.44-.832 19.441-.165 11.1-3.9 19.114 0 19.453.165a1 1 0 0 1 .553.895v25.594a1 1 0 0 1 -1.213.977 30.483 30.483 0 0 0 -18.248 1.358 1.015 1.015 0 0 1 -.38.077h-.27zm-11.469-4.229a30.774 30.774 0 0 1 11.6 2.2 32.2 32.2 0 0 1 17.98-1.605v-23.713a25.412 25.412 0 0 0 -17.658.28 1 1 0 0 1 -.683 0c-.1-.037-10.19-3.621-17.659-.306v23.74a35.522 35.522 0 0 1 6.42-.596z"/><path d="m34 29a1 1 0 0 1 -.707-1.707c1.28-1.279 6.576-3.369 13.982-1.254a1 1 0 1 1 -.55 1.922c-6.667-1.9-11.3.03-12.018.746a1 1 0 0 1 -.707.293z"/><path d="m34 24a1 1 0 0 1 -.707-1.707c1.28-1.279 6.576-3.369 13.982-1.254a1 1 0 1 1 -.55 1.922c-6.667-1.9-11.3.029-12.018.746a1 1 0 0 1 -.707.293z"/><path d="m34 19a1 1 0 0 1 -.707-1.707c1.28-1.279 6.576-3.37 13.982-1.254a1 1 0 0 1 -.55 1.922c-6.667-1.9-11.3.03-12.018.746a1 1 0 0 1 -.707.293z"/><path d="m30 29a1 1 0 0 1 -.707-.293c-.717-.717-5.35-2.65-12.018-.746a1 1 0 0 1 -.55-1.922c7.408-2.116 12.7-.025 13.982 1.254a1 1 0 0 1 -.707 1.707z"/><path d="m30 24a1 1 0 0 1 -.707-.293c-.717-.716-5.35-2.649-12.018-.746a1 1 0 0 1 -.55-1.922c7.408-2.116 12.7-.025 13.982 1.254a1 1 0 0 1 -.707 1.707z"/><path d="m30 19a1 1 0 0 1 -.707-.293c-.717-.716-5.35-2.649-12.018-.746a1 1 0 0 1 -.55-1.922c7.408-2.117 12.7-.025 13.982 1.254a1 1 0 0 1 -.707 1.707z"/><path d="m46.5 51h-15.5a1 1 0 0 1 0-2h15.5a1.5 1.5 0 0 0 0-3h-7.08a3.486 3.486 0 0 1 -3.5-3.386l-.1-2.943a1 1 0 0 1 .966-1.032.975.975 0 0 1 1.033.966l.1 2.944a1.493 1.493 0 0 0 1.501 1.451h7.08a3.5 3.5 0 0 1 0 7z"/><path d="m27 57h-8a5.006 5.006 0 0 1 -5-5v-4a5.006 5.006 0 0 1 5-5h8a5.006 5.006 0 0 1 5 5v4a5.006 5.006 0 0 1 -5 5zm-8-12a3 3 0 0 0 -3 3v4a3 3 0 0 0 3 3h8a3 3 0 0 0 3-3v-4a3 3 0 0 0 -3-3z"/><path d="m24 57a1 1 0 0 1 -1-1v-12a1 1 0 0 1 2 0v12a1 1 0 0 1 -1 1z"/><path d="m31 51h-7a1 1 0 0 1 0-2h7a1 1 0 0 1 0 2z"/></g></svg>