<svg id="_x30_1" enable-background="new 0 0 496 494.901" height="30" viewBox="0 0 496 494.901" width="30" xmlns="http://www.w3.org/2000/svg"><g><g><g><path d="m133.923 270.718 10.077-6.718.203.271c17.585-19.797 43.234-32.271 71.797-32.271h8v-16c-22.998-4.6-39.614-24.621-39.982-48h-.018-8c-13.255 0-24-10.745-24-24 0-13.255 10.745-24 24-24h8c0-8.837 7.163-16 16-16h10.745c14.488 0 28.383-5.755 38.627-16 10.245 10.245 24.139 16 38.627 16h8c8.837 0 16 7.163 16 16h8c13.255 0 24 10.745 24 24 0 13.255-10.745 24-24 24h-8-.017c-.369 23.379-16.984 43.4-39.982 48v16h8c33.507 0 63.005 17.167 80.179 43.185l-.001.276c1.065-15.188 7.423-28.907 17.249-39.334-.775-1.424-1.606-2.818-2.503-4.162l-10.833-16.25c-7.909-11.865-12.091-25.675-12.091-39.937v-87.778c0-48.523-39.477-88-88-88h-32c-48.523 0-88 39.477-88 88v87.778c0 14.262-4.182 28.072-12.092 39.938l-10.833 16.25c-5.938 8.905-9.075 19.27-9.075 29.972 0 7.823 1.652 15.396 4.91 22.505l2.148 4.69 1.882-.008c1.87-7.449 6.444-14.048 12.983-18.407z" fill="#f0bc5e"/></g></g><g><circle cx="408" cy="264" r="8"/><circle cx="440" cy="296" r="8"/><path d="m390.059 271.999h67.882v16.001h-67.882z" transform="matrix(.707 -.707 .707 .707 -73.803 381.823)"/><path d="m240 128h16v32h-16z"/><circle cx="216" cy="136" r="8"/><circle cx="280" cy="136" r="8"/><path d="m278.311 173.268.845-1.689-14.311-7.157-.845 1.69c-3.05 6.099-9.181 9.888-16 9.888s-12.95-3.789-16-9.89l-.845-1.689-14.311 7.157.845 1.688c5.777 11.556 17.391 18.734 30.311 18.734s24.534-7.178 30.311-18.732z"/><path d="m496 280c0-39.701-32.299-72-72-72-31.599 0-58.489 20.471-68.156 48.84-19.497-20.807-46.778-32.84-75.844-32.84v-1.833c20.745-6.714 35.997-24.728 39.317-46.167h.683c17.645 0 32-14.355 32-32s-14.355-32-32-32h-1.376c-3.303-9.311-12.195-16-22.624-16h-8c-12.455 0-24.164-4.85-32.97-13.657l-5.657-5.657-5.656 5.657c-8.808 8.807-20.518 13.657-32.972 13.657h-10.745c-10.429 0-19.321 6.689-22.624 16h-1.376c-17.645 0-32 14.355-32 32s14.355 32 32 32h.683c3.32 21.439 18.571 39.453 39.317 46.167v1.833c-28.864 0-56.454 12.041-76.099 33.118l-10.415 6.944c-10.95 7.298-17.486 19.512-17.486 32.671 0 8.703 2.85 16.75 7.66 23.267h-23.66c-8.822 0-16 7.178-16 16v17.371c-9.313 3.302-16 12.199-16 22.629v32c0 13.233 10.767 24 24 24h8v16c0 8.822 7.178 16 16 16h292.336l19.664 30.901 70.573-110.901h-30.573v-44.167c19.281-12.932 32-34.923 32-59.833zm-72-56c30.879 0 56 25.121 56 56s-25.121 56-56 56-56-25.121-56-56 25.121-56 56-56zm-88-80c0 8.822-7.178 16-16 16v-32c8.822 0 16 7.178 16 16zm-176 0c0-8.822 7.178-16 16-16v32c-8.822 0-16-7.178-16-16zm72 96v-30.559l-6.431-1.286c-19.451-3.89-33.569-21.111-33.569-40.947v-47.208c0-4.411 3.589-8 8-8h10.745c14.184 0 27.649-4.684 38.628-13.319 10.978 8.635 24.442 13.319 38.627 13.319h8c4.411 0 8 3.589 8 8v47.208c0 19.836-14.118 37.057-33.569 40.947l-6.431 1.286v30.559h16c7.84 0 15.525 1.044 22.895 3.023-4.72 23.433-24.273 41.543-47.989 44.529-2.28-9.512-8.049-17.93-16.392-23.491l-16.374-10.916-13.786 18.381c-7.77-7.798-13.091-17.711-15.254-28.487 7.401-1.998 15.095-3.04 22.899-3.04h16.001zm-72 61.333c0-5.844 2.791-11.427 7.467-14.933l16.533-12.4 16.533 12.4c4.676 3.506 7.467 9.089 7.467 14.933 0 10.293-8.374 18.667-18.667 18.667h-10.666c-10.293 0-18.667-8.374-18.667-18.667zm59.182-17.576 6.677-8.903 3.78 2.52c6.487 4.325 10.36 11.563 10.36 19.359 0 12.209-9.456 22.245-21.427 23.187 3.43-5.376 5.427-11.751 5.427-18.588.001-6.232-1.716-12.301-4.817-17.575zm-38.808-27.038-20.374 15.281-5.326-7.102c6.882-6.683 14.758-12.15 23.286-16.239.652 2.738 1.452 5.431 2.414 8.06zm11.626 79.281v16h-16v-16zm0 32v80h-16v-80zm16 0h48v80h-48zm0-16v-16h64v16zm-69.64-74.626 3.78-2.52 6.677 8.903c-3.1 5.274-4.818 11.343-4.818 17.576 0 6.836 1.997 13.211 5.427 18.588-11.97-.942-21.426-10.978-21.426-23.188 0-7.796 3.873-15.034 10.36-19.359zm-42.36 58.626h64v16h-56-8zm-16 72v-32c0-4.411 3.589-8 8-8h16c4.411 0 8 3.589 8 8v32c0 4.411-3.589 8-8 8h-16c-4.411 0-8-3.589-8-8zm32 22.624c9.311-3.303 16-12.195 16-22.624v-32c0-2.804-.483-5.497-1.371-8h33.371v80h-48zm160 17.376v-80c8.822 0 16-7.178 16-16v-16c0-8.822-7.178-16-16-16h-23.66c3.513-4.759 5.97-10.336 7.044-16.388 15.451-1.581 29.967-8.087 41.485-18.736 10.605-9.806 17.914-22.41 21.185-36.239 13.43 6.438 25.185 16.274 34.01 28.849-.029.836-.064 1.671-.064 2.514 0 24.91 12.719 46.901 32 59.833v44.167h-30.573l40.727 64zm193.427-48-41.427 65.099-41.427-65.099h17.427v-52.128c7.512 2.664 15.586 4.128 24 4.128s16.488-1.464 24-4.128v52.128z"/><path d="m48 56c0-13.234-10.767-24-24-24s-24 10.766-24 24 10.767 24 24 24 24-10.766 24-24zm-32 0c0-4.411 3.589-8 8-8s8 3.589 8 8-3.589 8-8 8-8-3.589-8-8z"/><path d="m416 104c0 13.234 10.767 24 24 24s24-10.766 24-24-10.767-24-24-24-24 10.766-24 24zm24-8c4.411 0 8 3.589 8 8s-3.589 8-8 8-8-3.589-8-8 3.589-8 8-8z"/><path d="m384 0h16v32h-16z"/><path d="m400 32h32v16h-32z"/><path d="m352 32h32v16h-32z"/><path d="m384 48h16v32h-16z"/><path d="m48 192h16v32h-16z"/><path d="m64 224h32v16h-32z"/><path d="m16 224h32v16h-32z"/><path d="m48 240h16v32h-16z"/><path d="m480 160v-16h-16v16h-16v16h16v16h16v-16h16v-16z"/><path d="m96 160h16v-16h16v-16h-16v-16h-16v16h-16v16h16z"/></g></g></svg>